<?xml version="1.0" encoding="utf-8"?>
<!-- Generator: Adobe Illustrator 17.0.0, SVG Export Plug-In . SVG Version: 6.00 Build 0)  -->
<!DOCTYPE svg PUBLIC "-//W3C//DTD SVG 1.1//EN" "http://www.w3.org/Graphics/SVG/1.1/DTD/svg11.dtd">
<svg version="1.1" id="Capa_1" xmlns="http://www.w3.org/2000/svg" xmlns:xlink="http://www.w3.org/1999/xlink" x="0px" y="0px"
	 width="300px" height="300px" viewBox="0 0 300 300" enable-background="new 0 0 300 300" xml:space="preserve">
<g>
	<path fill="#3D3D3B" d="M155.468,193.702v0.241h-3.79v-0.241h0.313c0.365,0,0.63-0.107,0.795-0.32
		c0.105-0.139,0.157-0.475,0.157-1.004v-5.713c0-0.447-0.028-0.743-0.085-0.887c-0.043-0.108-0.133-0.201-0.267-0.28
		c-0.192-0.105-0.391-0.157-0.6-0.157h-0.313V185.1h3.79v0.241h-0.321c-0.36,0-0.624,0.107-0.788,0.32
		c-0.108,0.139-0.164,0.475-0.164,1.004v5.713c0,0.447,0.028,0.743,0.085,0.886c0.043,0.109,0.135,0.202,0.273,0.281
		c0.188,0.105,0.385,0.157,0.594,0.157L155.468,193.702L155.468,193.702z"/>
	<path fill="#3D3D3B" d="M158.265,184.669v7.923c0,0.374,0.027,0.622,0.082,0.743c0.054,0.122,0.138,0.214,0.251,0.277
		c0.113,0.063,0.323,0.095,0.632,0.095v0.234h-2.928v-0.234c0.274,0,0.461-0.028,0.561-0.085s0.178-0.15,0.234-0.281
		c0.056-0.13,0.085-0.381,0.085-0.75v-5.425c0-0.673-0.015-1.088-0.046-1.243c-0.03-0.154-0.079-0.259-0.147-0.316
		c-0.067-0.057-0.153-0.085-0.257-0.085c-0.113,0-0.257,0.035-0.431,0.105l-0.111-0.228l1.781-0.73H158.265z"/>
	<path fill="#3D3D3B" d="M165.158,187.968v3.619c0,0.691,0.016,1.115,0.049,1.269c0.033,0.155,0.085,0.262,0.157,0.323
		c0.071,0.06,0.155,0.091,0.251,0.091c0.135,0,0.287-0.038,0.456-0.111l0.091,0.229l-1.787,0.736h-0.293v-1.265
		c-0.513,0.557-0.904,0.906-1.174,1.051c-0.27,0.143-0.554,0.214-0.854,0.214c-0.335,0-0.626-0.097-0.871-0.29
		c-0.246-0.193-0.416-0.442-0.512-0.746c-0.096-0.304-0.143-0.735-0.143-1.292v-2.667c0-0.283-0.03-0.478-0.091-0.587
		c-0.061-0.109-0.151-0.192-0.27-0.251s-0.336-0.085-0.649-0.081v-0.242h2.094v3.998c0,0.556,0.097,0.922,0.29,1.096
		c0.194,0.173,0.427,0.261,0.701,0.261c0.186,0,0.399-0.059,0.636-0.176c0.237-0.117,0.518-0.341,0.844-0.671v-3.384
		c0-0.34-0.062-0.568-0.186-0.689c-0.124-0.119-0.382-0.183-0.773-0.192v-0.242L165.158,187.968L165.158,187.968z"/>
	<path fill="#3D3D3B" d="M168.373,189.065c0.435-0.435,0.691-0.685,0.769-0.75c0.197-0.166,0.407-0.293,0.633-0.385
		c0.225-0.091,0.449-0.137,0.671-0.137c0.374,0,0.696,0.108,0.965,0.326c0.27,0.217,0.449,0.533,0.541,0.945
		c0.448-0.522,0.826-0.864,1.135-1.028c0.309-0.163,0.627-0.244,0.953-0.244c0.318,0,0.598,0.081,0.844,0.244
		c0.245,0.164,0.441,0.43,0.584,0.799c0.095,0.252,0.143,0.648,0.143,1.186v2.569c0,0.374,0.028,0.63,0.084,0.769
		c0.044,0.096,0.125,0.178,0.242,0.245c0.117,0.068,0.308,0.102,0.573,0.102v0.234h-2.947v-0.234h0.124c0.257,0,0.457-0.05,0.6-0.15
		c0.1-0.07,0.171-0.181,0.215-0.332c0.017-0.074,0.026-0.285,0.026-0.632v-2.569c0-0.486-0.058-0.83-0.175-1.03
		c-0.169-0.278-0.442-0.416-0.815-0.416c-0.231,0-0.462,0.057-0.694,0.172c-0.233,0.116-0.514,0.33-0.844,0.643l-0.013,0.072
		l0.013,0.281v2.849c0,0.409,0.023,0.662,0.069,0.763c0.046,0.1,0.132,0.184,0.258,0.251c0.126,0.068,0.341,0.102,0.645,0.102v0.234
		h-3.02v-0.234c0.33,0,0.558-0.04,0.682-0.117c0.123-0.078,0.209-0.196,0.257-0.353c0.021-0.074,0.032-0.29,0.032-0.645v-2.569
		c0-0.486-0.071-0.836-0.214-1.05c-0.192-0.278-0.459-0.417-0.802-0.417c-0.234,0-0.468,0.063-0.698,0.189
		c-0.36,0.192-0.639,0.407-0.835,0.645v3.202c0,0.391,0.027,0.645,0.081,0.763c0.055,0.117,0.136,0.206,0.242,0.264
		c0.107,0.059,0.323,0.088,0.649,0.088v0.234h-2.955v-0.234c0.274,0,0.465-0.029,0.574-0.088c0.108-0.058,0.192-0.152,0.248-0.28
		c0.056-0.129,0.085-0.377,0.085-0.747v-2.283c0-0.657-0.019-1.08-0.059-1.272c-0.03-0.143-0.077-0.242-0.143-0.296
		c-0.066-0.055-0.155-0.082-0.267-0.082c-0.122,0-0.267,0.032-0.437,0.098l-0.098-0.234l1.8-0.73h0.28L168.373,189.065
		L168.373,189.065z"/>
	<path fill="#3D3D3B" d="M179.049,187.793v4.8c0,0.374,0.027,0.623,0.081,0.747c0.054,0.124,0.135,0.216,0.241,0.277
		c0.108,0.061,0.301,0.091,0.584,0.091v0.234h-2.902v-0.234c0.292,0,0.487-0.028,0.588-0.085c0.099-0.057,0.179-0.15,0.237-0.281
		c0.058-0.13,0.088-0.381,0.088-0.75v-2.302c0-0.648-0.019-1.067-0.059-1.259c-0.031-0.139-0.078-0.236-0.144-0.29
		c-0.065-0.055-0.154-0.082-0.267-0.082c-0.122,0-0.27,0.032-0.444,0.098l-0.091-0.234l1.8-0.73L179.049,187.793L179.049,187.793z
		 M178.507,184.669c0.182,0,0.337,0.064,0.466,0.192c0.127,0.129,0.192,0.284,0.192,0.466s-0.065,0.34-0.192,0.469
		c-0.129,0.131-0.284,0.197-0.466,0.197c-0.183,0-0.34-0.066-0.47-0.197c-0.13-0.13-0.196-0.287-0.196-0.469
		c0-0.183,0.064-0.337,0.193-0.466C178.163,184.734,178.321,184.669,178.507,184.669"/>
	<path fill="#3D3D3B" d="M182.439,189.058c0.7-0.844,1.367-1.265,2.003-1.265c0.326,0,0.606,0.081,0.841,0.245
		c0.234,0.163,0.421,0.431,0.561,0.805c0.096,0.261,0.143,0.66,0.143,1.2v2.549c0,0.378,0.031,0.634,0.091,0.769
		c0.048,0.108,0.125,0.194,0.231,0.255c0.106,0.061,0.303,0.091,0.59,0.091v0.234h-2.954v-0.234h0.124
		c0.279,0,0.473-0.043,0.584-0.127c0.111-0.085,0.189-0.209,0.231-0.375c0.017-0.066,0.026-0.27,0.026-0.613v-2.446
		c0-0.543-0.071-0.937-0.212-1.183c-0.141-0.245-0.379-0.368-0.714-0.368c-0.517,0-1.032,0.282-1.546,0.847v3.149
		c0,0.405,0.024,0.654,0.072,0.75c0.061,0.126,0.144,0.219,0.251,0.277c0.107,0.059,0.323,0.088,0.649,0.088v0.234h-2.955v-0.234
		h0.131c0.304,0,0.509-0.077,0.616-0.231c0.107-0.155,0.16-0.449,0.16-0.883v-2.217c0-0.718-0.016-1.154-0.049-1.311
		c-0.032-0.156-0.083-0.262-0.15-0.32c-0.067-0.056-0.158-0.085-0.27-0.085c-0.122,0-0.267,0.033-0.438,0.098l-0.098-0.234l1.8-0.73
		h0.28L182.439,189.058L182.439,189.058z"/>
	<path fill="#3D3D3B" d="M190.76,193.082c-0.613,0.474-0.998,0.748-1.154,0.822c-0.234,0.108-0.485,0.163-0.75,0.163
		c-0.413,0-0.753-0.141-1.021-0.424c-0.267-0.283-0.401-0.654-0.401-1.116c0-0.291,0.066-0.543,0.196-0.756
		c0.178-0.295,0.488-0.573,0.929-0.835c0.441-0.261,1.175-0.578,2.201-0.952v-0.234c0-0.596-0.094-1.004-0.284-1.226
		s-0.464-0.332-0.825-0.332c-0.274,0-0.492,0.074-0.653,0.222c-0.166,0.147-0.248,0.318-0.248,0.508l0.013,0.378
		c0,0.2-0.051,0.354-0.153,0.463s-0.236,0.163-0.401,0.163c-0.161,0-0.293-0.056-0.395-0.169c-0.102-0.113-0.153-0.267-0.153-0.463
		c0-0.374,0.192-0.717,0.574-1.029c0.382-0.314,0.92-0.47,1.611-0.47c0.531,0,0.965,0.089,1.305,0.267
		c0.256,0.135,0.445,0.346,0.567,0.631c0.078,0.188,0.117,0.57,0.117,1.148v2.029c0,0.57,0.012,0.918,0.033,1.047
		c0.021,0.128,0.057,0.214,0.108,0.258c0.049,0.043,0.108,0.065,0.172,0.065c0.07,0,0.131-0.015,0.183-0.046
		c0.091-0.057,0.267-0.215,0.528-0.476v0.365c-0.486,0.652-0.952,0.978-1.396,0.978c-0.213,0-0.383-0.074-0.508-0.222
		S190.764,193.438,190.76,193.082 M190.76,192.658v-2.276c-0.657,0.261-1.08,0.445-1.272,0.554c-0.344,0.192-0.589,0.391-0.737,0.6
		c-0.148,0.209-0.222,0.437-0.222,0.685c0,0.313,0.093,0.573,0.281,0.78c0.186,0.207,0.402,0.31,0.645,0.31
		C189.787,193.31,190.221,193.092,190.76,192.658"/>
	<path fill="#3D3D3B" d="M198.377,191.673c-0.161,0.787-0.476,1.393-0.945,1.816c-0.469,0.424-0.989,0.636-1.558,0.636
		c-0.678,0-1.27-0.285-1.774-0.854c-0.505-0.57-0.756-1.339-0.756-2.309c0-0.939,0.279-1.702,0.839-2.289
		c0.559-0.587,1.229-0.88,2.012-0.88c0.587,0,1.068,0.155,1.447,0.466s0.568,0.634,0.568,0.968c0,0.165-0.053,0.298-0.16,0.401
		c-0.108,0.102-0.256,0.153-0.447,0.153c-0.257,0-0.449-0.083-0.58-0.248c-0.075-0.091-0.123-0.265-0.147-0.522
		c-0.024-0.257-0.111-0.452-0.264-0.587c-0.152-0.13-0.363-0.196-0.632-0.196c-0.435,0-0.784,0.161-1.05,0.483
		c-0.352,0.426-0.528,0.989-0.528,1.689c0,0.713,0.175,1.343,0.525,1.888c0.35,0.546,0.822,0.819,1.418,0.819
		c0.426,0,0.809-0.145,1.148-0.437c0.239-0.2,0.472-0.564,0.698-1.09L198.377,191.673z"/>
	<path fill="#3D3D3B" d="M201.292,187.793v4.8c0,0.374,0.027,0.623,0.082,0.747c0.054,0.124,0.134,0.216,0.241,0.277
		c0.107,0.061,0.301,0.091,0.584,0.091v0.234h-2.902v-0.234c0.292,0,0.487-0.028,0.587-0.085c0.1-0.057,0.179-0.15,0.237-0.281
		c0.059-0.13,0.088-0.381,0.088-0.75v-2.302c0-0.648-0.019-1.067-0.059-1.259c-0.03-0.139-0.077-0.236-0.143-0.29
		c-0.066-0.055-0.154-0.082-0.267-0.082c-0.122,0-0.269,0.032-0.444,0.098l-0.091-0.234l1.8-0.73L201.292,187.793L201.292,187.793z
		 M200.751,184.669c0.183,0,0.338,0.064,0.466,0.192c0.128,0.129,0.193,0.284,0.193,0.466s-0.065,0.34-0.193,0.469
		c-0.128,0.131-0.284,0.197-0.466,0.197s-0.339-0.066-0.469-0.197c-0.131-0.13-0.197-0.287-0.197-0.469
		c0-0.183,0.065-0.337,0.193-0.466C200.406,184.734,200.564,184.669,200.751,184.669"/>
	<path fill="#3D3D3B" d="M205.863,187.793c0.905,0,1.631,0.343,2.178,1.03c0.465,0.587,0.698,1.261,0.698,2.021
		c0,0.535-0.128,1.076-0.385,1.624c-0.257,0.547-0.61,0.961-1.06,1.239c-0.449,0.278-0.951,0.417-1.503,0.417
		c-0.9,0-1.614-0.359-2.145-1.077c-0.447-0.603-0.672-1.282-0.672-2.034c0-0.548,0.136-1.092,0.408-1.634
		c0.272-0.542,0.629-0.941,1.073-1.2C204.898,187.923,205.368,187.793,205.863,187.793 M205.661,188.217
		c-0.23,0-0.462,0.069-0.694,0.205c-0.232,0.138-0.42,0.377-0.564,0.721c-0.143,0.343-0.215,0.784-0.215,1.323
		c0,0.87,0.172,1.62,0.519,2.25c0.346,0.63,0.801,0.945,1.366,0.945c0.421,0,0.769-0.173,1.043-0.522
		c0.274-0.348,0.411-0.945,0.411-1.793c0-1.06-0.228-1.895-0.685-2.504C206.533,188.425,206.139,188.217,205.661,188.217
		 M207.239,184.878l-1.923,2.25h-0.222l0.685-2.25H207.239z"/>
	<path fill="#3D3D3B" d="M211.361,189.058c0.7-0.844,1.367-1.265,2.002-1.265c0.326,0,0.606,0.081,0.841,0.245
		c0.235,0.163,0.421,0.431,0.561,0.805c0.096,0.261,0.143,0.66,0.143,1.2v2.549c0,0.378,0.03,0.634,0.091,0.769
		c0.047,0.108,0.125,0.194,0.231,0.255c0.106,0.061,0.303,0.091,0.59,0.091v0.234h-2.955v-0.234h0.125
		c0.278,0,0.473-0.043,0.584-0.127c0.111-0.085,0.188-0.209,0.231-0.375c0.016-0.066,0.026-0.27,0.026-0.613v-2.446
		c0-0.543-0.071-0.937-0.212-1.183c-0.141-0.245-0.379-0.368-0.714-0.368c-0.517,0-1.032,0.282-1.546,0.847v3.149
		c0,0.405,0.024,0.654,0.072,0.75c0.06,0.126,0.144,0.219,0.251,0.277c0.107,0.059,0.323,0.088,0.648,0.088v0.234h-2.954v-0.234
		h0.13c0.304,0,0.51-0.077,0.617-0.231c0.107-0.155,0.16-0.449,0.16-0.883v-2.217c0-0.718-0.016-1.154-0.049-1.311
		c-0.033-0.156-0.083-0.262-0.15-0.32c-0.067-0.056-0.158-0.085-0.27-0.085c-0.122,0-0.267,0.033-0.437,0.098l-0.098-0.234
		l1.799-0.73h0.281V189.058z"/>
	<path fill="#3D3D3B" d="M228.244,193.943h-2.361l-2.993-4.134c-0.222,0.009-0.402,0.013-0.541,0.013
		c-0.056,0-0.116-0.001-0.182-0.003c-0.066-0.002-0.133-0.006-0.202-0.01v2.569c0,0.556,0.06,0.902,0.183,1.037
		c0.165,0.192,0.413,0.287,0.743,0.287h0.346v0.241h-3.79v-0.241h0.333c0.374,0,0.641-0.122,0.802-0.365
		c0.091-0.135,0.138-0.454,0.138-0.959v-5.713c0-0.556-0.061-0.903-0.183-1.037c-0.169-0.192-0.421-0.287-0.756-0.287h-0.333V185.1
		h3.221c0.939,0,1.632,0.069,2.077,0.205c0.445,0.138,0.824,0.389,1.135,0.757c0.311,0.367,0.466,0.805,0.466,1.314
		c0,0.543-0.177,1.015-0.532,1.415c-0.354,0.4-0.903,0.683-1.646,0.848l1.826,2.536c0.418,0.583,0.777,0.969,1.077,1.161
		c0.3,0.192,0.691,0.313,1.174,0.365v0.242H228.244z M221.964,189.397c0.082,0,0.154,0.001,0.214,0.004
		c0.061,0.002,0.111,0.004,0.15,0.004c0.844,0,1.48-0.183,1.908-0.548c0.428-0.365,0.642-0.83,0.642-1.396
		c0-0.552-0.172-1.001-0.518-1.347c-0.346-0.346-0.803-0.518-1.373-0.518c-0.252,0-0.593,0.041-1.023,0.124L221.964,189.397
		L221.964,189.397z"/>
	<path fill="#3D3D3B" d="M229.549,190.219c-0.004,0.886,0.211,1.582,0.645,2.087s0.945,0.757,1.532,0.757
		c0.392,0,0.732-0.108,1.021-0.323c0.29-0.215,0.532-0.584,0.727-1.105l0.203,0.13c-0.091,0.595-0.357,1.138-0.796,1.627
		c-0.44,0.489-0.99,0.733-1.65,0.733c-0.718,0-1.331-0.279-1.842-0.838c-0.511-0.559-0.766-1.309-0.766-2.253
		c0-1.022,0.261-1.819,0.785-2.39c0.524-0.572,1.181-0.858,1.973-0.858c0.669,0,1.219,0.22,1.65,0.662
		c0.43,0.441,0.646,1.031,0.646,1.77L229.549,190.219L229.549,190.219z M229.549,189.84h2.765c-0.021-0.382-0.068-0.652-0.137-0.809
		c-0.108-0.242-0.27-0.434-0.486-0.573c-0.215-0.139-0.441-0.209-0.675-0.209c-0.361,0-0.685,0.14-0.968,0.421
		C229.762,188.95,229.596,189.341,229.549,189.84"/>
	<path fill="#3D3D3B" d="M238.333,187.793v2.034h-0.215c-0.166-0.639-0.377-1.074-0.636-1.304c-0.259-0.23-0.588-0.346-0.988-0.346
		c-0.304,0-0.55,0.08-0.737,0.241c-0.187,0.161-0.281,0.339-0.281,0.535c0,0.243,0.07,0.452,0.209,0.626
		c0.136,0.178,0.409,0.368,0.822,0.567l0.952,0.463c0.883,0.43,1.324,0.998,1.324,1.702c0,0.544-0.205,0.981-0.616,1.314
		c-0.411,0.333-0.871,0.499-1.379,0.499c-0.365,0-0.783-0.065-1.252-0.195c-0.144-0.043-0.261-0.066-0.352-0.066
		c-0.101,0-0.178,0.057-0.235,0.169h-0.215v-2.133h0.215c0.122,0.609,0.354,1.068,0.698,1.376c0.343,0.309,0.728,0.463,1.154,0.463
		c0.3,0,0.545-0.088,0.734-0.264c0.189-0.176,0.284-0.388,0.284-0.636c0-0.3-0.105-0.552-0.317-0.756
		c-0.211-0.204-0.631-0.463-1.261-0.776c-0.63-0.313-1.043-0.596-1.239-0.848c-0.196-0.248-0.293-0.561-0.293-0.939
		c0-0.491,0.169-0.902,0.505-1.232c0.337-0.331,0.773-0.496,1.307-0.496c0.235,0,0.519,0.049,0.855,0.15
		c0.222,0.065,0.369,0.097,0.444,0.097c0.07,0,0.124-0.015,0.163-0.046c0.04-0.03,0.085-0.098,0.138-0.202L238.333,187.793
		L238.333,187.793z"/>
	<path fill="#3D3D3B" d="M241.729,187.793v4.8c0,0.374,0.027,0.623,0.082,0.747c0.054,0.124,0.135,0.216,0.241,0.277
		c0.106,0.061,0.301,0.091,0.584,0.091v0.234h-2.902v-0.234c0.292,0,0.487-0.028,0.588-0.085c0.099-0.057,0.178-0.15,0.237-0.281
		c0.058-0.13,0.088-0.381,0.088-0.75v-2.302c0-0.648-0.019-1.067-0.058-1.259c-0.031-0.139-0.078-0.236-0.144-0.29
		c-0.065-0.055-0.154-0.082-0.267-0.082c-0.122,0-0.27,0.032-0.444,0.098l-0.091-0.234l1.8-0.73L241.729,187.793L241.729,187.793z
		 M241.189,184.669c0.183,0,0.338,0.064,0.467,0.192c0.127,0.129,0.192,0.284,0.192,0.466s-0.065,0.34-0.192,0.469
		c-0.129,0.131-0.284,0.197-0.467,0.197c-0.182,0-0.339-0.066-0.469-0.197c-0.13-0.13-0.196-0.287-0.196-0.469
		c0-0.183,0.064-0.337,0.193-0.466C240.844,184.734,241.002,184.669,241.189,184.669"/>
	<path fill="#3D3D3B" d="M247.599,193.271c-0.292,0.304-0.576,0.522-0.854,0.655c-0.279,0.133-0.578,0.199-0.9,0.199
		c-0.652,0-1.222-0.272-1.708-0.818c-0.487-0.545-0.73-1.246-0.73-2.103s0.269-1.641,0.808-2.351
		c0.539-0.71,1.233-1.065,2.081-1.065c0.525,0,0.961,0.167,1.304,0.503v-1.102c0-0.683-0.015-1.102-0.049-1.259
		c-0.032-0.156-0.083-0.263-0.153-0.32c-0.069-0.057-0.156-0.085-0.261-0.085c-0.113,0-0.263,0.035-0.45,0.105l-0.085-0.228
		l1.781-0.73h0.293v6.906c0,0.7,0.016,1.127,0.049,1.281s0.085,0.262,0.157,0.323c0.071,0.06,0.155,0.091,0.251,0.091
		c0.117,0,0.273-0.038,0.469-0.111l0.072,0.228l-1.774,0.736h-0.3v-0.855H247.599z M247.599,192.814v-3.078
		c-0.026-0.295-0.105-0.566-0.234-0.809c-0.13-0.244-0.304-0.427-0.519-0.551c-0.215-0.124-0.425-0.186-0.629-0.186
		c-0.383,0-0.724,0.172-1.024,0.514c-0.396,0.452-0.594,1.113-0.594,1.983c0,0.878,0.192,1.55,0.574,2.018
		c0.382,0.467,0.809,0.701,1.278,0.701C246.848,193.408,247.229,193.21,247.599,192.814"/>
	<path fill="#3D3D3B" d="M251.062,190.219c-0.004,0.886,0.211,1.582,0.645,2.087s0.945,0.757,1.533,0.757
		c0.391,0,0.732-0.108,1.021-0.323c0.29-0.215,0.532-0.584,0.727-1.105l0.202,0.13c-0.091,0.595-0.357,1.138-0.796,1.627
		c-0.439,0.489-0.989,0.733-1.65,0.733c-0.718,0-1.331-0.279-1.842-0.838c-0.511-0.559-0.766-1.309-0.766-2.253
		c0-1.022,0.262-1.819,0.785-2.39c0.524-0.572,1.182-0.858,1.973-0.858c0.669,0,1.219,0.22,1.65,0.662
		c0.43,0.441,0.645,1.031,0.645,1.77L251.062,190.219L251.062,190.219z M251.062,189.84h2.765c-0.021-0.382-0.068-0.652-0.138-0.809
		c-0.108-0.242-0.27-0.434-0.486-0.573c-0.215-0.139-0.441-0.209-0.675-0.209c-0.361,0-0.684,0.14-0.968,0.421
		C251.276,188.95,251.109,189.341,251.062,189.84"/>
	<path fill="#3D3D3B" d="M257.726,189.058c0.7-0.844,1.367-1.265,2.002-1.265c0.326,0,0.606,0.081,0.841,0.245
		c0.235,0.163,0.421,0.431,0.561,0.805c0.095,0.261,0.143,0.66,0.143,1.2v2.549c0,0.378,0.03,0.634,0.091,0.769
		c0.047,0.108,0.125,0.194,0.231,0.255c0.106,0.061,0.303,0.091,0.59,0.091v0.234h-2.954v-0.234h0.124
		c0.278,0,0.473-0.043,0.584-0.127c0.111-0.085,0.188-0.209,0.231-0.375c0.016-0.066,0.026-0.27,0.026-0.613v-2.446
		c0-0.543-0.071-0.937-0.212-1.183c-0.141-0.245-0.379-0.368-0.714-0.368c-0.517,0-1.032,0.282-1.546,0.847v3.149
		c0,0.405,0.024,0.654,0.072,0.75c0.06,0.126,0.144,0.219,0.251,0.277c0.107,0.059,0.323,0.088,0.648,0.088v0.234h-2.954v-0.234
		h0.13c0.304,0,0.51-0.077,0.617-0.231c0.107-0.155,0.16-0.449,0.16-0.883v-2.217c0-0.718-0.016-1.154-0.049-1.311
		c-0.032-0.156-0.083-0.262-0.15-0.32c-0.067-0.056-0.158-0.085-0.27-0.085c-0.122,0-0.267,0.033-0.437,0.098l-0.098-0.234l1.8-0.73
		h0.28V189.058z"/>
	<path fill="#3D3D3B" d="M267.736,191.673c-0.161,0.787-0.476,1.393-0.945,1.816c-0.469,0.424-0.989,0.636-1.558,0.636
		c-0.678,0-1.27-0.285-1.774-0.854c-0.505-0.57-0.756-1.339-0.756-2.309c0-0.939,0.279-1.702,0.839-2.289
		c0.559-0.587,1.229-0.88,2.011-0.88c0.587,0,1.069,0.155,1.448,0.466c0.379,0.311,0.568,0.634,0.568,0.968
		c0,0.165-0.053,0.298-0.16,0.401c-0.108,0.102-0.256,0.153-0.447,0.153c-0.257,0-0.449-0.083-0.58-0.248
		c-0.075-0.091-0.124-0.265-0.147-0.522c-0.024-0.257-0.112-0.452-0.265-0.587c-0.152-0.13-0.363-0.196-0.632-0.196
		c-0.435,0-0.784,0.161-1.05,0.483c-0.352,0.426-0.528,0.989-0.528,1.689c0,0.713,0.175,1.343,0.525,1.888
		c0.35,0.546,0.822,0.819,1.418,0.819c0.426,0,0.809-0.145,1.148-0.437c0.239-0.2,0.472-0.564,0.698-1.09L267.736,191.673z"/>
	<path fill="#3D3D3B" d="M270.651,187.793v4.8c0,0.374,0.027,0.623,0.082,0.747c0.054,0.124,0.135,0.216,0.241,0.277
		c0.106,0.061,0.301,0.091,0.584,0.091v0.234h-2.902v-0.234c0.292,0,0.487-0.028,0.587-0.085c0.1-0.057,0.179-0.15,0.238-0.281
		c0.058-0.13,0.088-0.381,0.088-0.75v-2.302c0-0.648-0.019-1.067-0.059-1.259c-0.03-0.139-0.077-0.236-0.143-0.29
		c-0.066-0.055-0.155-0.082-0.267-0.082c-0.122,0-0.27,0.032-0.444,0.098l-0.091-0.234l1.8-0.73L270.651,187.793L270.651,187.793z
		 M270.11,184.669c0.183,0,0.338,0.064,0.466,0.192c0.128,0.129,0.192,0.284,0.192,0.466s-0.064,0.34-0.192,0.469
		c-0.128,0.131-0.284,0.197-0.466,0.197c-0.183,0-0.339-0.066-0.469-0.197c-0.131-0.13-0.196-0.287-0.196-0.469
		c0-0.183,0.064-0.337,0.192-0.466C269.766,184.734,269.923,184.669,270.11,184.669"/>
	<path fill="#3D3D3B" d="M275.686,193.082c-0.613,0.474-0.998,0.748-1.154,0.822c-0.235,0.108-0.485,0.163-0.751,0.163
		c-0.413,0-0.752-0.141-1.021-0.424s-0.401-0.654-0.401-1.116c0-0.291,0.065-0.543,0.196-0.756c0.178-0.295,0.488-0.573,0.929-0.835
		c0.441-0.261,1.175-0.578,2.201-0.952v-0.234c0-0.596-0.095-1.004-0.284-1.226c-0.189-0.222-0.464-0.332-0.824-0.332
		c-0.273,0-0.491,0.074-0.652,0.222c-0.166,0.147-0.248,0.318-0.248,0.508l0.013,0.378c0,0.2-0.05,0.354-0.153,0.463
		c-0.102,0.108-0.235,0.163-0.401,0.163c-0.161,0-0.292-0.056-0.394-0.169c-0.102-0.113-0.153-0.267-0.153-0.463
		c0-0.374,0.191-0.717,0.573-1.029c0.383-0.314,0.92-0.47,1.611-0.47c0.531,0,0.965,0.089,1.304,0.267
		c0.257,0.135,0.446,0.346,0.568,0.631c0.078,0.188,0.117,0.57,0.117,1.148v2.029c0,0.57,0.011,0.918,0.032,1.047
		c0.021,0.128,0.057,0.214,0.108,0.258c0.049,0.043,0.108,0.065,0.172,0.065c0.069,0,0.13-0.015,0.183-0.046
		c0.091-0.057,0.267-0.215,0.528-0.476v0.365c-0.487,0.652-0.952,0.978-1.396,0.978c-0.213,0-0.382-0.074-0.508-0.222
		C275.755,193.691,275.691,193.438,275.686,193.082 M275.686,192.658v-2.276c-0.657,0.261-1.081,0.445-1.272,0.554
		c-0.344,0.192-0.589,0.391-0.738,0.6c-0.147,0.209-0.222,0.437-0.222,0.685c0,0.313,0.094,0.573,0.281,0.78s0.402,0.31,0.645,0.31
		C274.712,193.31,275.147,193.092,275.686,192.658"/>
	<path fill="#3D3D3B" d="M280.283,184.669v7.923c0,0.374,0.027,0.622,0.081,0.743s0.139,0.214,0.251,0.277
		c0.113,0.063,0.323,0.095,0.632,0.095v0.234h-2.928v-0.234c0.274,0,0.461-0.028,0.561-0.085c0.1-0.057,0.178-0.15,0.235-0.281
		c0.056-0.13,0.084-0.381,0.084-0.75v-5.425c0-0.673-0.015-1.088-0.046-1.243c-0.03-0.154-0.079-0.259-0.147-0.316
		s-0.153-0.085-0.258-0.085c-0.113,0-0.256,0.035-0.43,0.105l-0.111-0.228l1.78-0.73H280.283z"/>
	<g>
		<path fill="#3D3D3B" d="M279.331,149.776c-3.235,1.903-6.249,4.353-9.699,5.678c-5.691,2.187-9.485,0.017-11.479-5.714
			c-0.266-0.767-0.643-1.495-1.113-2.572c-1.063,1.149-1.803,1.949-2.575,2.783c-1.983-4.031-8.88-4.974-11.777-1.709
			c-5.23,5.893-11.642,9.936-19.295,11.738c-2.425,0.571-5.157,0.604-7.605,0.136c-4.115-0.788-5.809-5.87-3.527-9.329
			c1.371-2.079,2.675-4.234,3.72-6.489c2.865-6.181,3.913-12.627,1.847-19.265c-0.403-1.295-1.667-2.321-2.533-3.471
			c-0.643,1.141-1.655,2.216-1.869,3.433c-1.204,6.818-2.387,13.651-3.195,20.523c-0.268,2.283-0.663,4.236-2.419,5.683
			c-3.272,2.696-6.35,5.781-10.001,7.824c-4.592,2.569-8.185,0.835-10.237-4.078c-0.493-1.182-0.753-2.46-1.181-3.673
			c-0.225-0.635-0.578-1.225-0.875-1.836c-0.668,0.366-1.418,0.634-1.989,1.116c-2.266,1.912-4.193,4.458-6.761,5.735
			c-7.018,3.492-10.063,2.169-14.026-2.195c-0.917-1.01-1.914-1.984-3.007-2.793c-2.51-1.858-4.149-1.574-5.876,1.007
			c-1.029,1.536-1.808,3.241-2.846,4.771c-1.305,1.922-2.174,1.918-3.384-0.043c-1.267-2.054-2.289-4.26-3.546-6.323
			c-2.063-3.388-3.736-3.383-5.778,0.019c-0.783,1.303-1.32,2.754-1.986,4.129c-0.245,0.507-0.536,0.991-1.154,2.122
			c-0.142-3.041-0.248-5.313-0.386-8.277c-1.208,0.937-1.938,1.407-2.552,1.998c-1.618,1.559-3.025,3.384-4.803,4.724
			c-6.601,4.971-13.248,2.981-16.239-4.714c-0.394-1.013-0.842-2.006-1.402-3.333c-0.973,1.217-1.684,2.104-2.465,3.081
			c-1.031-2.655-3.316-3.119-5.432-3.805c-2.625-0.85-4.761-0.454-6.616,1.929c-1.863,2.395-4.054,4.566-6.279,6.646
			c-7.333,6.856-16.261,7.449-23.95,1.637c-6.142-4.644-9.927-10.927-12.199-18.166c-0.228-0.725,0.105-1.961,0.636-2.541
			c8.586-9.391,18.056-17.753,29.005-24.325c1.289-0.774,2.775-1.309,4.238-1.689c2.068-0.537,3.501,0.36,3.895,2.493
			c0.2,1.087,0.332,2.286,0.086,3.339c-0.767,3.282-1.765,6.509-2.595,9.778c-0.302,1.189-0.386,2.433-0.569,3.653
			c0.249,0.032,0.5,0.063,0.749,0.096c2.569-6.371,4.415-12.915,3.977-19.894c-0.196-3.121-2.234-4.433-5.265-3.38
			c-2.034,0.706-4.001,1.737-5.823,2.897c-11.224,7.15-21.237,15.743-30.166,25.606c-0.486,0.537-0.98,1.067-1.47,1.6
			c-0.298-0.133-0.598-0.267-0.895-0.399c1.913-8.807,3.826-17.613,5.898-27.146c-1.322,1.411-2.2,2.301-3.025,3.238
			c-5.034,5.713-10.293,11.243-17.133,14.761c-2.925,1.505-6.308,2.342-9.581,2.873c-2.554,0.415-4.234-1.478-3.801-4.044
			c0.393-2.333,1.425-4.566,2.261-6.811c0.348-0.934,0.92-1.784,1.389-2.673c-1.079,0.487-1.863,1.191-2.264,2.071
			c-1.289,2.831-2.437,5.726-3.64,8.596v2.421c1.964,3.955,3.101,4.551,7.625,3.913c6.712-0.947,11.891-4.764,16.65-9.189
			c2.986-2.777,5.67-5.88,8.763-9.124c-0.169,0.871-0.282,1.438-0.39,2.006c-1.274,6.713-2.499,13.438-3.859,20.134
			c-0.291,1.431-0.844,2.922-1.668,4.112c-3.431,4.952-6.428,10.128-7.155,16.189c-1.049,8.746,1.779,16.124,8.609,21.844h1.453
			c0.231-3.079,0.722-6.163,0.643-9.233c-0.225-8.614-0.78-17.221-0.967-25.836c-0.033-1.511,1.079-3.048,1.662-4.572
			c0.275,0.074,0.55,0.147,0.825,0.22c0.249,0.734,0.505,1.464,0.746,2.2c2.121,6.478,5.565,12.12,10.527,16.83
			c9.568,9.083,20.642,8.611,29.382-1.282c0.785-0.888,1.579-1.768,2.501-2.801c0.307,1.167,0.488,2.104,0.798,2.997
			c1.208,3.478,4.421,4.726,7.553,2.835c1.154-0.697,2.227-1.634,3.104-2.66c1.435-1.676,2.679-3.515,4.127-5.45
			c2.147,5.113,4.643,9.712,10.885,9.751c5.794,0.037,9.471-3.765,13.069-8.163c0.399,3.277,0.749,6.155,1.1,9.032
			c0.241,0.015,0.481,0.032,0.722,0.047c0.314-0.792,0.645-1.578,0.938-2.378c0.665-1.812,1.141-3.72,2.029-5.413
			c0.548-1.046,1.614-2.25,2.637-2.46c0.66-0.136,1.867,1.27,2.471,2.212c1.213,1.893,2.077,4.009,3.276,5.912
			c1.618,2.569,3.045,2.573,4.738,0.102c0.954-1.392,1.719-2.912,2.633-4.333c1.722-2.672,2.999-2.924,5.477-0.855
			c1.726,1.441,3.073,3.395,4.923,4.612c1.587,1.045,3.655,1.925,5.498,1.9c4.25-0.057,7.886-2.014,11.01-4.904
			c1.281-1.185,2.653-2.27,3.844-3.281c0.709,1.919,1.352,4.348,2.471,6.535c1.869,3.648,4.897,4.882,8.707,3.351
			c2.571-1.032,5.033-2.541,7.228-4.246c2.183-1.696,3.969-3.902,6.192-6.15c0.233,1.662,0.385,2.914,0.587,4.159
			c0.886,5.464,4.65,8.107,10.079,6.962c7.142-1.505,13.58-4.501,19.106-9.34c0.388-0.34,0.842-0.606,1.488-1.065
			c0.086,0.774,0.139,1.231,0.189,1.69c0.373,3.44,2.24,4.866,5.45,3.569c2.256-0.912,4.241-2.549,6.249-3.996
			c1.463-1.054,2.771-2.328,4.143-3.5c0.043,0.114,0.182,0.475,0.312,0.837c2.118,5.881,5.424,7.872,11.384,6.156
			c5.208-1.498,10.171-3.681,12.737-9.054v-0.969C280.607,149.305,279.907,149.437,279.331,149.776 M216.134,125.659
			c2.895,4.369,0.679,14.909-4.277,20.992C211.011,142.913,214.005,127.871,216.134,125.659 M47.639,173.217
			c-0.475,2.233-1.493,2.593-3.079,0.965c-2.995-3.076-4.346-6.933-4.511-11.133c-0.267-6.825,2.67-12.571,6.327-18.023
			c0.318,0.034,0.637,0.069,0.955,0.102c0,4.954-0.063,9.908,0.021,14.86c0.06,3.533,0.342,7.061,0.478,10.594
			C47.865,171.457,47.82,172.362,47.639,173.217 M100.047,157.091c-1.995,0.81-4.202-0.899-4.398-2.913
			c-0.203-2.097,1.225-3.849,3.487-3.627c2.242,0.22,4.424,1.056,6.632,1.621c0.082,0.444,0.164,0.888,0.245,1.332
			C104.036,154.726,102.171,156.229,100.047,157.091 M246.506,156.017c-1.719,0.713-3.41,0.28-4.047-1.767
			c-0.517-1.662,0.682-3.521,2.602-3.999c2.727-0.679,5.143,0.256,7.434,1.577c0.078,0.295,0.157,0.59,0.235,0.885
			C250.662,153.832,248.665,155.121,246.506,156.017"/>
		<circle fill="#3D3D3B" cx="186.01" cy="139.072" r="2.381"/>
	</g>
</g>
</svg>
